<svg xmlns="http://www.w3.org/2000/svg" xmlns:xlink="http://www.w3.org/1999/xlink" data-stacking-context="true" aria-owns="root" width="527.3333740234375" height="170.6041717529297" viewBox="16 9.333333969116211 527.3333740234375 170.6041717529297"><!-- Generated by dom-to-svg from about:srcdoc --><style/><g data-stacking-layer="rootBackgroundAndBorders"/><g data-stacking-layer="childStackingContextsWithNegativeStackLevels"/><g data-stacking-layer="inFlowNonInlineNonPositionedDescendants"/><g data-stacking-layer="nonPositionedFloats"/><g data-stacking-layer="inFlowInlineLevelNonPositionedDescendants"/><g data-stacking-layer="childStackingContextsWithStackLevelZeroAndPositionedDescendantsWithStackLevelZero"/><g data-stacking-layer="childStackingContextsWithPositiveStackLevels"/><g data-tag="div" id="root" data-z-index="auto" data-stacking-context="true" aria-owns="style1 svg1"><g data-tag="style" id="style1" data-z-index="auto" data-stacking-context="true"/><g data-tag="svg" id="svg1" data-z-index="auto" data-stacking-context="true" mask="url(#mask-for-svg11)"><g data-stacking-layer="rootBackgroundAndBorders"/><g data-stacking-layer="childStackingContextsWithNegativeStackLevels"/><g data-stacking-layer="inFlowNonInlineNonPositionedDescendants"/><g data-stacking-layer="nonPositionedFloats"/><g data-stacking-layer="inFlowInlineLevelNonPositionedDescendants"/><g data-stacking-layer="childStackingContextsWithStackLevelZeroAndPositionedDescendantsWithStackLevelZero"/><g data-stacking-layer="childStackingContextsWithPositiveStackLevels"/><mask id="mask-for-svg11"><rect width="527.3333740234375" height="170.6041717529297" x="16" y="9.333333969116211" fill="#ffffff"/></mask><g class="svg-content" data-view-box="0 0 680 220" data-width="" data-height="" transform="matrix(0.775474 0 0 0.775474 16.0057 9.33333)">
      <defs color="rgb(0, 0, 0)" fill="rgb(0, 0, 0)" stroke="none">
        
        <linearGradient id="svg1-bg" x1="0%" y1="0%" x2="100%" y2="100%">
          <stop offset="0%" stop-color="#050a10"/>
          <stop offset="50%" stop-color="#0c0616"/>
          <stop offset="100%" stop-color="#0a0f1e"/>
        </linearGradient>
        
        <linearGradient id="svg1-nameg" x1="0%" y1="0%" x2="100%" y2="0%">
          <stop offset="0%" stop-color="#22d3ee"/>
          <stop offset="45%" stop-color="#a78bfa"/>
          <stop offset="100%" stop-color="#f472b6"/>
        </linearGradient>
        
        <linearGradient id="svg1-goldg" x1="0%" y1="0%" x2="100%" y2="0%">
          <stop offset="0%" stop-color="#d4a017"/>
          <stop offset="100%" stop-color="#f0c040"/>
        </linearGradient>
        
        <linearGradient id="svg1-tbl" x1="0%" y1="0%" x2="0%" y2="100%">
          <stop offset="0%" stop-color="#3a2000"/>
          <stop offset="100%" stop-color="#180c00"/>
        </linearGradient>
        <linearGradient id="svg1-tblGold" x1="0%" y1="0%" x2="0%" y2="100%">
          <stop offset="0%" stop-color="#d4a017"/>
          <stop offset="100%" stop-color="#8a5c00"/>
        </linearGradient>
        <linearGradient id="svg1-tblSkin" x1="0%" y1="0%" x2="0%" y2="100%">
          <stop offset="0%" stop-color="#e8d5a0"/>
          <stop offset="100%" stop-color="#c4a86a"/>
        </linearGradient>
        
        <linearGradient id="svg1-bar1" x1="0%" y1="100%" x2="0%" y2="0%">
          <stop offset="0%" stop-color="#22d3ee"/>
          <stop offset="100%" stop-color="#a78bfa"/>
        </linearGradient>
        <linearGradient id="svg1-bar2" x1="0%" y1="100%" x2="0%" y2="0%">
          <stop offset="0%" stop-color="#f472b6"/>
          <stop offset="100%" stop-color="#a78bfa"/>
        </linearGradient>
        
        <linearGradient id="svg1-wavel" x1="0%" y1="0%" x2="100%" y2="0%">
          <stop offset="0%" stop-color="#22d3ee" stop-opacity="0"/>
          <stop offset="25%" stop-color="#22d3ee" stop-opacity="0.6"/>
          <stop offset="55%" stop-color="#a78bfa" stop-opacity="0.6"/>
          <stop offset="75%" stop-color="#d4a017" stop-opacity="0.5"/>
          <stop offset="100%" stop-color="#f472b6" stop-opacity="0"/>
        </linearGradient>
        <clipPath id="svg1-clip">
          <rect x="0" y="0" width="680" height="220" rx="10" color="rgb(0, 0, 0)" fill="rgb(0, 0, 0)" stroke="none"/>
        </clipPath>
      </defs>
      <g clip-path="url(&quot;#svg1-clip&quot;)" color="rgb(0, 0, 0)" fill="rgb(0, 0, 0)" stroke="none">
        
        <rect width="680" height="220" fill="url(&quot;#svg1-bg&quot;)" color="rgb(0, 0, 0)" stroke="none"/>
        
        <g opacity="0.05" stroke="rgb(167, 139, 250)" stroke-width="0.5px" fill="none" color="rgb(0, 0, 0)">
          <line x1="0" y1="44" x2="680" y2="44" color="rgb(0, 0, 0)" fill="none" stroke="rgb(167, 139, 250)" stroke-width="0.5px"/>
          <line x1="0" y1="88" x2="680" y2="88" color="rgb(0, 0, 0)" fill="none" stroke="rgb(167, 139, 250)" stroke-width="0.5px"/>
          <line x1="0" y1="132" x2="680" y2="132" color="rgb(0, 0, 0)" fill="none" stroke="rgb(167, 139, 250)" stroke-width="0.5px"/>
          <line x1="0" y1="176" x2="680" y2="176" color="rgb(0, 0, 0)" fill="none" stroke="rgb(167, 139, 250)" stroke-width="0.5px"/>
          <line x1="170" y1="0" x2="170" y2="220" color="rgb(0, 0, 0)" fill="none" stroke="rgb(167, 139, 250)" stroke-width="0.5px"/>
          <line x1="340" y1="0" x2="340" y2="220" color="rgb(0, 0, 0)" fill="none" stroke="rgb(167, 139, 250)" stroke-width="0.5px"/>
          <line x1="510" y1="0" x2="510" y2="220" color="rgb(0, 0, 0)" fill="none" stroke="rgb(167, 139, 250)" stroke-width="0.5px"/>
        </g>
        
        <rect x="0" y="0" width="130" height="220" fill="rgb(34, 211, 238)" opacity="0.03" color="rgb(0, 0, 0)" stroke="none"/>
        
        <g class="spin" opacity="0.07" stroke="rgb(212, 160, 23)" stroke-width="0.5px" fill="none" color="rgb(0, 0, 0)" transform="matrix(0.989272, 0.146086, -0.146086, 0.989272, 0, 0)">
          <circle cx="340" cy="110" r="80" color="rgb(0, 0, 0)" fill="none" stroke="rgb(212, 160, 23)" stroke-width="0.5px"/>
          <circle cx="340" cy="110" r="60" color="rgb(0, 0, 0)" fill="none" stroke="rgb(212, 160, 23)" stroke-width="0.5px"/>
          <ellipse cx="340" cy="70" rx="10" ry="28" fill="rgb(212, 160, 23)" stroke="none" opacity="0.4" color="rgb(0, 0, 0)" stroke-width="0.5px"/>
          <ellipse cx="340" cy="70" rx="10" ry="28" fill="rgb(212, 160, 23)" stroke="none" opacity="0.4" transform="matrix(0.707107, 0.707107, -0.707107, 0.707107, 177.365, -208.198)" color="rgb(0, 0, 0)" stroke-width="0.5px"/>
          <ellipse cx="340" cy="70" rx="10" ry="28" fill="rgb(212, 160, 23)" stroke="none" opacity="0.4" transform="matrix(0, 1, -1, 0, 450, -230)" color="rgb(0, 0, 0)" stroke-width="0.5px"/>
          <ellipse cx="340" cy="70" rx="10" ry="28" fill="rgb(212, 160, 23)" stroke="none" opacity="0.4" transform="matrix(-0.707107, 0.707107, -0.707107, -0.707107, 658.198, -52.6346)" color="rgb(0, 0, 0)" stroke-width="0.5px"/>
          <ellipse cx="340" cy="70" rx="10" ry="28" fill="rgb(212, 160, 23)" stroke="none" opacity="0.4" transform="matrix(-1, 0, 0, -1, 680, 220)" color="rgb(0, 0, 0)" stroke-width="0.5px"/>
          <ellipse cx="340" cy="70" rx="10" ry="28" fill="rgb(212, 160, 23)" stroke="none" opacity="0.4" transform="matrix(-0.707107, -0.707107, 0.707107, -0.707107, 502.635, 428.198)" color="rgb(0, 0, 0)" stroke-width="0.5px"/>
          <ellipse cx="340" cy="70" rx="10" ry="28" fill="rgb(212, 160, 23)" stroke="none" opacity="0.4" transform="matrix(0, -1, 1, 0, 230, 450)" color="rgb(0, 0, 0)" stroke-width="0.5px"/>
          <ellipse cx="340" cy="70" rx="10" ry="28" fill="rgb(212, 160, 23)" stroke="none" opacity="0.4" transform="matrix(0.707107, -0.707107, 0.707107, 0.707107, 21.8019, 272.635)" color="rgb(0, 0, 0)" stroke-width="0.5px"/>
        </g>
        <g class="spinR" opacity="0.05" stroke="rgb(167, 139, 250)" stroke-width="0.4px" fill="none" color="rgb(0, 0, 0)" transform="matrix(0.978147, -0.207916, 0.207916, 0.978147, 0, 0)">
          <circle cx="340" cy="110" r="100" color="rgb(0, 0, 0)" fill="none" stroke="rgb(167, 139, 250)" stroke-width="0.4px"/>
          <circle cx="340" cy="110" r="115" color="rgb(0, 0, 0)" fill="none" stroke="rgb(167, 139, 250)" stroke-width="0.4px"/>
          <line x1="340" y1="10" x2="340" y2="210" color="rgb(0, 0, 0)" fill="none" stroke="rgb(167, 139, 250)" stroke-width="0.4px"/>
          <line x1="240" y1="110" x2="440" y2="110" color="rgb(0, 0, 0)" fill="none" stroke="rgb(167, 139, 250)" stroke-width="0.4px"/>
          <line x1="269" y1="39" x2="411" y2="181" color="rgb(0, 0, 0)" fill="none" stroke="rgb(167, 139, 250)" stroke-width="0.4px"/>
          <line x1="411" y1="39" x2="269" y2="181" color="rgb(0, 0, 0)" fill="none" stroke="rgb(167, 139, 250)" stroke-width="0.4px"/>
        </g>
        
        <g class="spin" color="rgb(0, 0, 0)" fill="rgb(0, 0, 0)" stroke="none" transform="matrix(0.989272, 0.146086, -0.146086, 0.989272, 0, 0)">
          <circle cx="340" cy="20" r="2.5" fill="rgb(34, 211, 238)" opacity="0.8" color="rgb(0, 0, 0)" stroke="none"/>
          <circle cx="430" cy="110" r="2" fill="rgb(167, 139, 250)" opacity="0.7" color="rgb(0, 0, 0)" stroke="none"/>
          <circle cx="340" cy="200" r="2.5" fill="rgb(244, 114, 182)" opacity="0.8" color="rgb(0, 0, 0)" stroke="none"/>
          <circle cx="250" cy="110" r="2" fill="rgb(34, 211, 238)" opacity="0.7" color="rgb(0, 0, 0)" stroke="none"/>
          <circle cx="410" cy="50" r="1.5" fill="rgb(212, 160, 23)" opacity="0.6" color="rgb(0, 0, 0)" stroke="none"/>
          <circle cx="270" cy="170" r="1.5" fill="rgb(212, 160, 23)" opacity="0.6" color="rgb(0, 0, 0)" stroke="none"/>
        </g>
        
        <circle class="t1" cx="50" cy="28" r="1.2" fill="rgb(34, 211, 238)" opacity="0.523984" color="rgb(0, 0, 0)" stroke="none"/>
        <circle class="t2" cx="610" cy="22" r="1" fill="rgb(244, 114, 182)" opacity="0.5" color="rgb(0, 0, 0)" stroke="none"/>
        <circle class="t3" cx="580" cy="190" r="1.3" fill="rgb(167, 139, 250)" opacity="0.6" color="rgb(0, 0, 0)" stroke="none"/>
        <circle class="t4" cx="80" cy="185" r="1" fill="rgb(212, 160, 23)" opacity="0.224269" color="rgb(0, 0, 0)" stroke="none"/>
        <circle class="t1" cx="180" cy="195" r="0.9" fill="rgb(34, 211, 238)" opacity="0.523984" color="rgb(0, 0, 0)" stroke="none"/>
        <circle class="t3" cx="490" cy="18" r="1.1" fill="rgb(167, 139, 250)" opacity="0.4" color="rgb(0, 0, 0)" stroke="none"/>
        <circle class="t2" cx="155" cy="15" r="0.8" fill="rgb(244, 114, 182)" opacity="0.4" color="rgb(0, 0, 0)" stroke="none"/>
        <circle class="t4" cx="530" cy="200" r="1" fill="rgb(212, 160, 23)" opacity="0.224269" color="rgb(0, 0, 0)" stroke="none"/>
        
        <g class="floatA" color="rgb(0, 0, 0)" fill="rgb(0, 0, 0)" stroke="none" transform="matrix(1, 0, 0, 1, 0, -1.06189)">
          
          <ellipse cx="80" cy="208" rx="40" ry="8" fill="rgb(0, 0, 0)" opacity="0.4" color="rgb(0, 0, 0)" stroke="none"/>
          
          <path d="M42,138 Q39,200 80,210 Q121,200 118,138 Z" fill="url(&quot;#svg1-tbl&quot;)" color="rgb(0, 0, 0)" stroke="none"/>
          <path d="M42,138 Q39,200 80,210 Q121,200 118,138 Z" fill="none" stroke="rgb(212, 160, 23)" stroke-width="0.7px" opacity="0.5" color="rgb(0, 0, 0)"/>
          
          <ellipse cx="80" cy="158" rx="38" ry="5.5" fill="none" stroke="url(&quot;#svg1-tblGold&quot;)" stroke-width="2px" color="rgb(0, 0, 0)"/>
          <ellipse cx="80" cy="182" rx="38" ry="5.5" fill="none" stroke="url(&quot;#svg1-tblGold&quot;)" stroke-width="2px" color="rgb(0, 0, 0)"/>
          <ellipse cx="80" cy="200" rx="38" ry="5.5" fill="none" stroke="url(&quot;#svg1-tblGold&quot;)" stroke-width="1.5px" color="rgb(0, 0, 0)"/>
          
          <line x1="51" y1="138" x2="48" y2="204" stroke="rgb(122, 58, 0)" stroke-width="2.5px" stroke-linecap="round" opacity="0.9" color="rgb(0, 0, 0)" fill="rgb(0, 0, 0)"/>
          <line x1="63" y1="136" x2="60" y2="206" stroke="rgb(122, 58, 0)" stroke-width="2.5px" stroke-linecap="round" opacity="0.9" color="rgb(0, 0, 0)" fill="rgb(0, 0, 0)"/>
          <line x1="80" y1="135" x2="80" y2="207" stroke="rgb(122, 58, 0)" stroke-width="2.5px" stroke-linecap="round" opacity="0.9" color="rgb(0, 0, 0)" fill="rgb(0, 0, 0)"/>
          <line x1="97" y1="136" x2="100" y2="206" stroke="rgb(122, 58, 0)" stroke-width="2.5px" stroke-linecap="round" opacity="0.9" color="rgb(0, 0, 0)" fill="rgb(0, 0, 0)"/>
          <line x1="109" y1="138" x2="112" y2="204" stroke="rgb(122, 58, 0)" stroke-width="2.5px" stroke-linecap="round" opacity="0.9" color="rgb(0, 0, 0)" fill="rgb(0, 0, 0)"/>
          
          <rect x="43" y="163" width="7" height="11" rx="2" fill="rgb(90, 40, 0)" color="rgb(0, 0, 0)" stroke="none"/>
          <rect x="55" y="161" width="7" height="11" rx="2" fill="rgb(90, 40, 0)" color="rgb(0, 0, 0)" stroke="none"/>
          <rect x="98" y="161" width="7" height="11" rx="2" fill="rgb(90, 40, 0)" color="rgb(0, 0, 0)" stroke="none"/>
          <rect x="110" y="163" width="7" height="11" rx="2" fill="rgb(90, 40, 0)" color="rgb(0, 0, 0)" stroke="none"/>
          
          <ellipse cx="80" cy="138" rx="38" ry="11" fill="url(&quot;#svg1-tblSkin&quot;)" color="rgb(0, 0, 0)" stroke="none"/>
          <ellipse cx="80" cy="138" rx="38" ry="11" fill="none" stroke="rgb(138, 92, 0)" stroke-width="1.5px" color="rgb(0, 0, 0)"/>
          
          <ellipse cx="80" cy="138" rx="22" ry="6.5" fill="rgb(26, 8, 0)" opacity="0.95" color="rgb(0, 0, 0)" stroke="none"/>
          <ellipse cx="80" cy="138" rx="16" ry="5" fill="rgb(13, 4, 0)" color="rgb(0, 0, 0)" stroke="none"/>
          
          <ellipse cx="74" cy="135" rx="7" ry="2.5" fill="rgb(255, 255, 255)" opacity="0.1" transform="matrix(0.978148, -0.207912, 0.207912, 0.978148, -26.451, 18.3355)" color="rgb(0, 0, 0)" stroke="none"/>
          
          <ellipse cx="80" cy="210" rx="40" ry="10" fill="rgb(92, 8, 8)" color="rgb(0, 0, 0)" stroke="none"/>
          <ellipse cx="80" cy="210" rx="40" ry="10" fill="none" stroke="rgb(196, 16, 16)" stroke-width="0.7px" opacity="0.6" color="rgb(0, 0, 0)"/>
          <ellipse cx="80" cy="216" rx="36" ry="7" fill="rgb(61, 5, 5)" color="rgb(0, 0, 0)" stroke="none"/>
        </g>
        
        <g class="floatB" color="rgb(0, 0, 0)" fill="rgb(0, 0, 0)" stroke="none" transform="matrix(1, 0, 0, 1, 0, 0.0218881)">
          
          <ellipse cx="148" cy="202" rx="30" ry="6" fill="rgb(0, 0, 0)" opacity="0.35" color="rgb(0, 0, 0)" stroke="none"/>
          
          <path d="M118,144 Q115,196 148,204 Q181,196 178,144 Z" fill="url(&quot;#svg1-tbl&quot;)" color="rgb(0, 0, 0)" stroke="none"/>
          <path d="M118,144 Q115,196 148,204 Q181,196 178,144 Z" fill="none" stroke="rgb(212, 160, 23)" stroke-width="0.6px" opacity="0.45" color="rgb(0, 0, 0)"/>
          
          <ellipse cx="148" cy="162" rx="30" ry="4.5" fill="none" stroke="url(&quot;#svg1-tblGold&quot;)" stroke-width="1.8px" color="rgb(0, 0, 0)"/>
          <ellipse cx="148" cy="183" rx="30" ry="4.5" fill="none" stroke="url(&quot;#svg1-tblGold&quot;)" stroke-width="1.8px" color="rgb(0, 0, 0)"/>
          <ellipse cx="148" cy="196" rx="30" ry="4.5" fill="none" stroke="url(&quot;#svg1-tblGold&quot;)" stroke-width="1.2px" color="rgb(0, 0, 0)"/>
          
          <line x1="124" y1="144" x2="122" y2="198" stroke="rgb(122, 58, 0)" stroke-width="2px" stroke-linecap="round" opacity="0.9" color="rgb(0, 0, 0)" fill="rgb(0, 0, 0)"/>
          <line x1="133" y1="143" x2="131" y2="199" stroke="rgb(122, 58, 0)" stroke-width="2px" stroke-linecap="round" opacity="0.9" color="rgb(0, 0, 0)" fill="rgb(0, 0, 0)"/>
          <line x1="148" y1="142" x2="148" y2="200" stroke="rgb(122, 58, 0)" stroke-width="2px" stroke-linecap="round" opacity="0.9" color="rgb(0, 0, 0)" fill="rgb(0, 0, 0)"/>
          <line x1="163" y1="143" x2="165" y2="199" stroke="rgb(122, 58, 0)" stroke-width="2px" stroke-linecap="round" opacity="0.9" color="rgb(0, 0, 0)" fill="rgb(0, 0, 0)"/>
          <line x1="172" y1="144" x2="174" y2="198" stroke="rgb(122, 58, 0)" stroke-width="2px" stroke-linecap="round" opacity="0.9" color="rgb(0, 0, 0)" fill="rgb(0, 0, 0)"/>
          
          <rect x="117" y="166" width="6" height="10" rx="2" fill="rgb(90, 40, 0)" color="rgb(0, 0, 0)" stroke="none"/>
          <rect x="126" y="164" width="6" height="10" rx="2" fill="rgb(90, 40, 0)" color="rgb(0, 0, 0)" stroke="none"/>
          <rect x="156" y="164" width="6" height="10" rx="2" fill="rgb(90, 40, 0)" color="rgb(0, 0, 0)" stroke="none"/>
          <rect x="165" y="166" width="6" height="10" rx="2" fill="rgb(90, 40, 0)" color="rgb(0, 0, 0)" stroke="none"/>
          
          <ellipse cx="148" cy="144" rx="30" ry="9" fill="url(&quot;#svg1-tblSkin&quot;)" color="rgb(0, 0, 0)" stroke="none"/>
          <ellipse cx="148" cy="144" rx="30" ry="9" fill="none" stroke="rgb(138, 92, 0)" stroke-width="1.2px" color="rgb(0, 0, 0)"/>
          
          <ellipse cx="148" cy="144" rx="17" ry="5.5" fill="rgb(26, 8, 0)" opacity="0.95" color="rgb(0, 0, 0)" stroke="none"/>
          <ellipse cx="148" cy="144" rx="12" ry="4" fill="rgb(13, 4, 0)" color="rgb(0, 0, 0)" stroke="none"/>
          
          <ellipse cx="143" cy="141" rx="5.5" ry="2" fill="rgb(255, 255, 255)" opacity="0.1" transform="matrix(0.984808, -0.173648, 0.173648, 0.984808, -22.3119, 26.9738)" color="rgb(0, 0, 0)" stroke="none"/>
          
          <ellipse cx="148" cy="204" rx="30" ry="8" fill="rgb(92, 8, 8)" color="rgb(0, 0, 0)" stroke="none"/>
          <ellipse cx="148" cy="204" rx="30" ry="8" fill="none" stroke="rgb(196, 16, 16)" stroke-width="0.7px" opacity="0.5" color="rgb(0, 0, 0)"/>
          <ellipse cx="148" cy="209" rx="27" ry="5.5" fill="rgb(61, 5, 5)" color="rgb(0, 0, 0)" stroke="none"/>
        </g>
        
        <circle class="t1" cx="35" cy="118" r="1.5" fill="rgb(212, 160, 23)" opacity="0.523984" color="rgb(0, 0, 0)" stroke="none"/>
        <circle class="t3" cx="125" cy="112" r="1.2" fill="rgb(240, 192, 64)" opacity="0.7" color="rgb(0, 0, 0)" stroke="none"/>
        <circle class="t2" cx="165" cy="120" r="1.8" fill="rgb(212, 160, 23)" opacity="0.9" color="rgb(0, 0, 0)" stroke="none"/>
        <circle class="t4" cx="175" cy="105" r="1" fill="rgb(34, 211, 238)" opacity="0.224269" color="rgb(0, 0, 0)" stroke="none"/>
        <circle class="t1" cx="18" cy="135" r="1" fill="rgb(244, 114, 182)" opacity="0.523984" color="rgb(0, 0, 0)" stroke="none"/>
        
        <g class="noteA" transform="matrix(1, 0, 0, 1, 263, 160)" color="rgb(0, 0, 0)" fill="rgb(0, 0, 0)" stroke="none">
          <circle cx="0" cy="0" r="4" fill="rgb(167, 139, 250)" opacity="0.65" color="rgb(0, 0, 0)" stroke="none"/>
          <rect x="4" y="-13" width="2" height="14" fill="rgb(167, 139, 250)" opacity="0.65" color="rgb(0, 0, 0)" stroke="none"/>
        </g>
        <g class="noteB" transform="matrix(1, 0, 0, 1, 412, 162)" color="rgb(0, 0, 0)" fill="rgb(0, 0, 0)" stroke="none">
          <circle cx="0" cy="0" r="4" fill="rgb(34, 211, 238)" opacity="0.6" color="rgb(0, 0, 0)" stroke="none"/>
          <rect x="4" y="-13" width="2" height="14" fill="rgb(34, 211, 238)" opacity="0.6" color="rgb(0, 0, 0)" stroke="none"/>
        </g>
        
        <path class="wave1" d="M0,110 C80,97 160,123 240,108 C320,93 400,118 480,107 C560,96 620,114 680,107" fill="none" stroke="url(&quot;#svg1-wavel&quot;)" stroke-width="1.5px" opacity="0.8" color="rgb(0, 0, 0)" stroke-dasharray="8px, 4px" stroke-dashoffset="-28.0006px"/>
        <path class="wave2" d="M0,116 C70,103 150,129 230,115 C310,101 390,122 470,113 C550,104 630,118 680,113" fill="none" stroke="rgb(212, 160, 23)" stroke-width="0.5px" opacity="0.35" color="rgb(0, 0, 0)" stroke-dasharray="5px, 6px" stroke-dashoffset="-12.5008px"/>
        
        <g stroke="rgb(34, 211, 238)" stroke-width="1.8px" fill="none" opacity="0.9" color="rgb(0, 0, 0)">
          <polyline points="22,14 12,14 12,30" color="rgb(0, 0, 0)" fill="none" stroke="rgb(34, 211, 238)" stroke-width="1.8px"/>
          <polyline points="658,14 668,14 668,30" color="rgb(0, 0, 0)" fill="none" stroke="rgb(34, 211, 238)" stroke-width="1.8px"/>
          <polyline points="22,206 12,206 12,190" color="rgb(0, 0, 0)" fill="none" stroke="rgb(34, 211, 238)" stroke-width="1.8px"/>
          <polyline points="658,206 668,206 668,190" color="rgb(0, 0, 0)" fill="none" stroke="rgb(34, 211, 238)" stroke-width="1.8px"/>
        </g>
        <rect x="12" y="14" width="656" height="192" fill="none" stroke="rgb(167, 139, 250)" stroke-width="0.3px" opacity="0.2" rx="2" color="rgb(0, 0, 0)"/>
        
        <text x="340" y="82" text-anchor="middle" font-family="&quot;Courier New&quot;, monospace" font-size="46px" font-weight="800" fill="rgb(0, 0, 0)" letter-spacing="5px" opacity="0.95" color="rgb(0, 0, 0)" stroke="none" dominant-baseline="auto" font-size-adjust="none" font-stretch="100%" font-style="normal" font-variant="normal" direction="ltr" text-decoration="none" text-rendering="auto" unicode-bidi="normal" word-spacing="0px" writing-mode="horizontal-tb" user-select="auto">VRAJ RATHOD</text>
        
        <text x="341" y="82" text-anchor="middle" font-family="&quot;Courier New&quot;, monospace" font-size="46px" font-weight="800" fill="rgb(0, 0, 0)" stroke="rgb(167, 139, 250)" stroke-width="0.3px" letter-spacing="5px" opacity="0.35" color="rgb(0, 0, 0)" dominant-baseline="auto" font-size-adjust="none" font-stretch="100%" font-style="normal" font-variant="normal" direction="ltr" text-decoration="none" text-rendering="auto" unicode-bidi="normal" word-spacing="0px" writing-mode="horizontal-tb" user-select="auto">VRAJ RATHOD</text>
        
        <text x="340" y="102" text-anchor="middle" font-family="&quot;Courier New&quot;, monospace" font-size="11px" fill="rgb(0, 0, 0)" letter-spacing="4px" color="rgb(0, 0, 0)" stroke="none" dominant-baseline="auto" font-size-adjust="none" font-stretch="100%" font-style="normal" font-variant="normal" font-weight="400" direction="ltr" text-decoration="none" text-rendering="auto" unicode-bidi="normal" word-spacing="0px" writing-mode="horizontal-tb" user-select="auto">
        - - - - - - - - - - - - - - - - - - - - - - - -</text>
        
        <text x="340" y="124" text-anchor="middle" font-family="&quot;Courier New&quot;, monospace" font-size="12px" fill="rgb(0, 0, 0)" letter-spacing="3px" color="rgb(0, 0, 0)" stroke="none" dominant-baseline="auto" font-size-adjust="none" font-stretch="100%" font-style="normal" font-variant="normal" font-weight="400" direction="ltr" text-decoration="none" text-rendering="auto" unicode-bidi="normal" word-spacing="0px" writing-mode="horizontal-tb" user-select="auto">
        BCA · GUJARAT UNIVERSITY · CODER</text>
        
        <text x="340" y="148" text-anchor="middle" font-family="&quot;Courier New&quot;, monospace" font-size="10.5px" fill="rgb(0, 0, 0)" letter-spacing="1.8px" color="rgb(0, 0, 0)" stroke="none" dominant-baseline="auto" font-size-adjust="none" font-stretch="100%" font-style="normal" font-variant="normal" font-weight="400" direction="ltr" text-decoration="none" text-rendering="auto" unicode-bidi="normal" word-spacing="0px" writing-mode="horizontal-tb" user-select="auto">
        PYTHON  ·  DJANGO  ·  C  ·  PHP  ·  LARAVEL</text>
        
        <text x="340" y="195" text-anchor="middle" font-family="Georgia, serif" font-size="10px" fill="rgb(0, 0, 0)" letter-spacing="3px" opacity="0.677084" class="glowPulse" color="rgb(0, 0, 0)" stroke="none" dominant-baseline="auto" font-size-adjust="none" font-stretch="100%" font-style="normal" font-variant="normal" font-weight="400" direction="ltr" text-decoration="none" text-rendering="auto" unicode-bidi="normal" word-spacing="0px" writing-mode="horizontal-tb" user-select="auto">✦  Building · Learning · Creating  ✦</text>
        
        <circle class="glowPulse" cx="25" cy="110" r="3" fill="rgb(34, 211, 238)" opacity="0.677084" color="rgb(0, 0, 0)" stroke="none"/>
        <circle class="glowPulse" cx="655" cy="110" r="3" fill="rgb(244, 114, 182)" opacity="0.677084" color="rgb(0, 0, 0)" stroke="none"/>
        <line x1="28" y1="110" x2="45" y2="110" stroke="rgb(34, 211, 238)" stroke-width="0.8px" opacity="0.4" color="rgb(0, 0, 0)" fill="rgb(0, 0, 0)"/>
        <line x1="635" y1="110" x2="652" y2="110" stroke="rgb(244, 114, 182)" stroke-width="0.8px" opacity="0.4" color="rgb(0, 0, 0)" fill="rgb(0, 0, 0)"/>
      </g>
    </g></g></g></svg>